<?xml version="1.0" encoding="UTF-8"?>
<svg width="15px" height="19px" viewBox="0 0 15 19" version="1.1" xmlns="http://www.w3.org/2000/svg" xmlns:xlink="http://www.w3.org/1999/xlink">
    <!-- Generator: sketchtool 60 (101010) - https://sketch.com -->
    <title>E4D91023-0396-4D4E-88DB-7B4DE853AF3E</title>
    <desc>Created with sketchtool.</desc>
    <g id="Design" stroke="none" stroke-width="1" fill="none" fill-rule="evenodd">
        <g id="Technical-Data_tableview" transform="translate(-49.000000, -687.000000)">
            <g id="Group-8-" transform="translate(24.000000, 420.000000)">
                <g id="Group-25" transform="translate(1.000000, 256.000000)">
                    <g id="Group-4" transform="translate(20.000000, 9.000000)">
                        <g id="Safety-Copy-2" transform="translate(0.594427, 0.594427)">
                            <polygon id="Path" points="0 0 21.3993808 0 21.3993808 21.3993808 0 21.3993808"></polygon>
                            <g id="Group" stroke-linecap="round" stroke-linejoin="round" transform="translate(3.566563, 1.783282)" fill-rule="nonzero">
                                <path d="M14.0847143,3.61065622 L7.19902828,0.0392946529 C7.09687639,-0.0137730123 6.97444719,-0.0130282505 6.87306054,0.0411566528 L0.177904932,3.61251822 C0.0681012182,3.67117198 0,3.78326583 0,3.90522836 L0,8.5703427 C0.00401722037,12.4051807 2.33820642,15.8745033 5.94795489,17.4108591 L6.87726902,17.8050495 C6.96411726,17.8419176 7.06301708,17.8421038 7.1500566,17.8054219 L8.19720884,17.3652395 C11.8739107,15.8622139 14.2658713,12.3593748 14.2662539,8.47780009 L14.2662539,3.90522836 C14.2662539,3.7819624 14.1964309,3.66856517 14.0847143,3.61065622 L14.0847143,3.61065622 Z" id="Path" fill="#0C0C0C"></path>
                                <circle id="Oval" stroke="#FFFFFF" stroke-width="0.891640867" cx="7.13312693" cy="8.91640867" r="4.45820433"></circle>
                                <polyline id="Path" stroke="#FFFFFF" stroke-width="0.891640867" points="4.45820433 9.25704339 5.90868809 10.9556889 9.5113004 8.0247678"></polyline>
                            </g>
                        </g>
                    </g>
                </g>
            </g>
        </g>
    </g>
</svg>