<?xml version="1.0" encoding="UTF-8"?>
<svg width="18px" height="20px" viewBox="0 0 18 20" version="1.1" xmlns="http://www.w3.org/2000/svg" xmlns:xlink="http://www.w3.org/1999/xlink">
    <!-- Generator: sketchtool 64 (101010) - https://sketch.com -->
    <title>41543ABD-9F4F-4B3E-8453-116221F13BA4@1x</title>
    <desc>Created with sketchtool.</desc>
    <g id="Style-Guide" stroke="none" stroke-width="1" fill="none" fill-rule="evenodd">
        <g id="Aris-Brand-Design-Style-Guide" transform="translate(-633.000000, -8966.000000)">
            <g id="Icon/Deployment/Default" transform="translate(630.000000, 8964.000000)">
                <g id="Icon/Technical-data/Default">
                    <polygon id="Path" points="0 0 24 0 24 24 0 24"></polygon>
                    <g id="1239795" transform="translate(3.000000, 2.000000)" fill="#FFFFFF">
                        <path d="M17.0377604,8.62738713 C17.0292607,8.63407843 17.0182292,8.6400463 17.0095486,8.64673755 C16.9256366,8.70858653 16.8370226,8.76880787 16.7415365,8.82776333 C16.7263455,8.83698639 16.7097078,8.84584778 16.6945168,8.85525176 C16.6080729,8.90625 16.5171079,8.95634403 16.4221644,9.00517218 L16.3447627,9.04513889 C16.2355324,9.09921153 16.1225044,9.15183741 16.0026042,9.20301648 L15.9318938,9.23177083 C15.8266421,9.27553528 15.7181351,9.31785301 15.606373,9.35890481 L15.5148655,9.39254194 C15.3839338,9.43901907 15.2490234,9.48386861 15.1099537,9.52745227 L15.016276,9.55548324 C14.89511,9.59255644 14.7717737,9.62709778 14.6459056,9.66145833 C14.6126302,9.67031972 14.5800781,9.67954282 14.5466218,9.68822338 C14.3985098,9.72746671 14.2458768,9.76435907 14.0885417,9.79926213 C14.0514685,9.80776185 14.0143953,9.81553819 13.977322,9.8236762 C13.8411458,9.85405815 13.7026186,9.88317417 13.5619213,9.91102431 L13.4633608,9.93073639 C13.2993345,9.96238426 13.1325955,9.99204282 12.962963,10.0200738 C12.9219112,10.0271268 12.8799551,10.0332755 12.8385417,10.0399667 C12.6904297,10.0640191 12.5381583,10.0869864 12.3851635,10.1085069 L12.293656,10.1215278 C12.1182364,10.1461227 11.9408275,10.1681857 11.7617911,10.187717 L11.6270616,10.2025463 C11.4630353,10.22045 11.2981047,10.2369069 11.1319083,10.2522787 L11.0644531,10.2586082 C10.879268,10.2748843 10.6940828,10.2884476 10.5088976,10.3011068 L10.3710938,10.3114149 C10.19477,10.3226273 10.0182653,10.3322121 9.84139903,10.3403501 L9.7974537,10.3425203 C9.60847079,10.3506583 9.41948787,10.3569879 9.23032407,10.3611473 L9.09179685,10.3640408 C8.90118634,10.3678385 8.71039495,10.3703704 8.51996528,10.3703704 C8.32971644,10.3703704 8.13892505,10.3678385 7.9481337,10.3640408 L7.80960648,10.3611473 C7.62026185,10.3566262 7.43127894,10.3504774 7.24265769,10.3425203 L7.19853153,10.3403501 C7.02148435,10.3322121 6.84497972,10.3226273 6.66883681,10.3114149 L6.53030963,10.3021919 C6.34512444,10.2897135 6.15993926,10.2759694 5.97475407,10.2596933 L5.90747972,10.2533637 C5.74128329,10.2383536 5.57617185,10.2217158 5.41214556,10.2036314 L5.27741611,10.1888021 C5.09856046,10.1681857 4.92133245,10.1461227 4.7455512,10.1226129 L4.65259694,10.1110388 C4.49960213,10.0896991 4.34895833,10.0667318 4.19921875,10.0426794 C4.15780528,10.0359881 4.11584926,10.0296586 4.07479745,10.0226056 C3.90534579,9.9943938 3.73860676,9.96473523 3.57439958,9.93326824 L3.47583912,9.91373699 C3.33514176,9.88588685 3.19661458,9.85659 3.06043838,9.82620806 C3.02336519,9.81807 2.98629194,9.8102937 2.94921875,9.80179398 C2.79296875,9.76634838 2.64033565,9.72927519 2.49113861,9.69075519 C2.45786315,9.68225551 2.42513019,9.67303241 2.39185472,9.66399019 C2.26526333,9.62962963 2.14192708,9.59436486 2.02148435,9.55819588 L1.92780671,9.52998407 C1.78855611,9.4865813 1.65364583,9.44155093 1.52289495,9.39525463 L1.43156829,9.36143662 C1.31962528,9.32056569 1.21111833,9.27806713 1.10586662,9.23448352 L1.03515625,9.20554833 C0.915979444,9.15436921 0.802228009,9.10192417 0.692997685,9.04785157 L0.615596065,9.00770398 C0.5206525,8.95887588 0.43041088,8.90896269 0.343243611,8.85778356 C0.328233519,8.84856046 0.311414907,8.83969907 0.296223981,8.83029514 C0.20073787,8.77152056 0.111038796,8.71111833 0.0282118056,8.6492694 C0.0197120833,8.64257815 0.00849972222,8.63661023 2.84217094e-14,8.62991898 L2.84217094e-14,12.5925926 C2.84217094e-14,13.5203269 3.24074074,14.8148148 8.51851852,14.8148148 C13.7962963,14.8148148 17.037037,13.5203269 17.037037,12.5925926 L17.0377604,8.62738713 Z" id="Path" fill-rule="nonzero"></path>
                        <path d="M17.0377604,13.8125723 C17.0292607,13.8192636 17.0182292,13.8252315 17.0095486,13.8319227 C16.9256366,13.8937717 16.8370226,13.9539931 16.7415365,14.0129485 C16.7263455,14.0221716 16.7097078,14.031033 16.6945168,14.0404369 C16.6080729,14.0914352 16.5171079,14.1415292 16.4221644,14.1903574 L16.3447627,14.2303241 C16.2355324,14.2843967 16.1225044,14.3370226 16.0026042,14.3882017 L15.9318938,14.416956 C15.8266421,14.4607205 15.7181351,14.5030382 15.606373,14.54409 L15.5148655,14.5777271 C15.3839338,14.6242043 15.2490234,14.6690538 15.1099537,14.7126375 L15.016276,14.7406684 C14.89511,14.7777416 14.7717737,14.812283 14.6459056,14.8466435 C14.6126302,14.8555049 14.5800781,14.864728 14.5466218,14.8734086 C14.3985098,14.9126519 14.2458768,14.9495443 14.0885417,14.9844473 C14.0514685,14.992947 14.0143953,15.0007234 13.977322,15.0088614 C13.8411458,15.0392433 13.7026186,15.0683594 13.5619213,15.0962095 L13.4633608,15.1159216 C13.2993345,15.1472078 13.1325955,15.1770472 12.962963,15.205259 C12.9219112,15.2123119 12.8799551,15.2184606 12.8385417,15.2251519 C12.6904297,15.2492043 12.5381583,15.2721716 12.3851635,15.2936921 L12.293656,15.306713 C12.1182364,15.3313079 11.9408275,15.3533709 11.7617911,15.3729022 L11.6270616,15.3877315 C11.4630353,15.4056351 11.2981047,15.422092 11.1319083,15.4374638 L11.0644531,15.4437934 C10.879268,15.4600694 10.6940828,15.4736328 10.5088976,15.4862919 L10.3710938,15.4966001 C10.19477,15.5078125 10.0182653,15.5173973 9.84139903,15.5255353 L9.7974537,15.5277055 C9.60847079,15.5358435 9.41948787,15.5421731 9.23032407,15.5463325 L9.09179685,15.549226 C8.90118634,15.5530237 8.71039495,15.5555556 8.51996528,15.5555556 C8.32971644,15.5555556 8.13892505,15.5530237 7.9481337,15.549226 L7.80960648,15.5463325 C7.62026185,15.5418113 7.43127894,15.5356626 7.24265769,15.5277055 L7.19853153,15.5255353 C7.02148435,15.5173973 6.84497972,15.5078125 6.66883681,15.4966001 L6.53030963,15.487377 C6.34512444,15.4748987 6.15993926,15.4611545 5.97475407,15.4448785 L5.90747972,15.4385489 C5.74128329,15.4235388 5.57617185,15.406901 5.41214556,15.3888166 L5.27741611,15.3739873 C5.09856046,15.3533709 4.92133245,15.3313079 4.7455512,15.3077981 L4.65259694,15.296224 C4.49960213,15.2748843 4.34895833,15.2519169 4.19921875,15.2278646 C4.15780528,15.2211733 4.11584926,15.2148438 4.07479745,15.2077908 C3.90534579,15.179579 3.73860676,15.1499204 3.57439958,15.1184534 L3.47583912,15.0989222 C3.33514176,15.0712529 3.19661458,15.0421369 3.06043838,15.0113932 C3.02336519,15.0032552 2.98629194,14.9954789 2.94921875,14.9869792 C2.79296875,14.9515336 2.64033565,14.9144604 2.49113861,14.8759404 C2.45786315,14.8674407 2.42513019,14.8582176 2.39185472,14.8491754 C2.26526333,14.8148148 2.14192708,14.77955 2.02148435,14.7433811 L1.92780671,14.7151693 C1.78855611,14.6719473 1.65364583,14.6270978 1.52289495,14.5804398 L1.43156829,14.5466218 C1.31962528,14.5057509 1.21111833,14.4632523 1.10586662,14.4196687 L1.03515625,14.3907335 C0.915979444,14.3395544 0.802228009,14.2871094 0.692997685,14.2330368 L0.615596065,14.1928892 C0.5206525,14.1440611 0.43041088,14.0941479 0.343243611,14.0429687 C0.328233519,14.0337456 0.311414907,14.0248843 0.296223981,14.0154803 C0.20073787,13.9567057 0.111038796,13.8963035 0.0282118056,13.8344546 C0.0197120833,13.8277633 0.00849972222,13.8217954 2.84217094e-14,13.8151042 L2.84217094e-14,17.7777778 C2.84217094e-14,18.7055121 3.24074074,20 8.51851852,20 C13.7962963,20 17.037037,18.7055121 17.037037,17.7777778 L17.0377604,13.8125723 Z" id="Path" fill-rule="nonzero"></path>
                        <path d="M17.0377604,3.44220194 C17.0292607,3.44889324 17.0182292,3.45486111 17.0095486,3.46155236 C16.9256366,3.52340134 16.8370226,3.58362269 16.7415365,3.64257815 C16.7263455,3.6518012 16.7097078,3.66066259 16.6945168,3.67006657 C16.6080729,3.72106481 16.5171079,3.77115884 16.4221644,3.81817852 L16.3447627,3.85814528 C16.2355324,3.91221787 16.1225044,3.96484375 16.0026042,4.01584204 L15.9318938,4.04477722 C15.8266421,4.08854167 15.7181351,4.13085935 15.606373,4.17191116 L15.5148655,4.20554833 C15.3839338,4.25202546 15.2490234,4.296875 15.1099537,4.34045861 L15.016276,4.36848958 C14.89511,4.40556278 14.7717737,4.43992333 14.6459056,4.47446472 C14.6126302,4.48332611 14.5800781,4.49254917 14.5466218,4.50104889 C14.3985098,4.54029222 14.2458768,4.57736546 14.0885417,4.61226852 C14.0514685,4.62076824 14.0143953,4.62854454 13.977322,4.63668259 C13.8411458,4.66706454 13.7026186,4.69618056 13.5619213,4.72403065 L13.4633608,4.74374278 C13.2993345,4.77539065 13.1325955,4.80504917 12.962963,4.83289931 C12.9219112,4.83995227 12.8799551,4.84628185 12.8385417,4.8529731 C12.6904297,4.87702546 12.5381583,4.89999278 12.3851635,4.92151333 L12.293656,4.93453417 C12.1182364,4.95912907 11.9408275,4.98119213 11.7617911,5.00072338 L11.6270616,5.01555269 C11.4630353,5.03327546 11.2981047,5.04991319 11.1319083,5.06510417 L11.0644531,5.07143375 C10.879268,5.08770977 10.6940828,5.10145398 10.5088976,5.11411315 L10.3710938,5.12622972 C10.19477,5.13744213 10.0182653,5.1470269 9.84139903,5.15516491 L9.7974537,5.15733509 C9.60847079,5.1654731 9.41948787,5.17180269 9.23032407,5.17596208 L9.09179685,5.1788556 C8.90118634,5.18265333 8.71039495,5.18518519 8.51996528,5.18518519 C8.32971644,5.18518519 8.13892505,5.18265333 7.9481337,5.1788556 L7.80960648,5.17596208 C7.62026185,5.17144097 7.43127894,5.16529222 7.24265769,5.15733509 L7.19853153,5.15516491 C7.02148435,5.1470269 6.84497972,5.13744213 6.66883681,5.12622972 L6.53030963,5.11700667 C6.34512444,5.10452833 6.15993926,5.09078417 5.97475407,5.0745081 L5.90747972,5.06817852 C5.74128329,5.05316843 5.57617185,5.03653065 5.41214556,5.0184462 L5.27741611,5.0036169 C5.09856046,4.98300056 4.92133245,4.9609375 4.7455512,4.93742769 L4.65259694,4.92585361 C4.49960213,4.90451389 4.34895833,4.88154657 4.19921875,4.85749421 C4.15780528,4.85080296 4.11584926,4.84447338 4.07479745,4.83742042 C3.90534579,4.80920861 3.73860676,4.77955005 3.57439958,4.74808306 L3.47583912,4.72855181 C3.33514176,4.70070167 3.19661458,4.67140481 3.06043838,4.64102287 C3.02336519,4.63288481 2.98629194,4.62510852 2.94921875,4.6166088 C2.79296875,4.58116319 2.64033565,4.54409 2.49113861,4.50557 C2.45786315,4.49707032 2.42513019,4.48784722 2.39185472,4.478805 C2.26526333,4.44444444 2.14192708,4.40917968 2.02148435,4.37301069 L1.92780671,4.34479889 C1.78855611,4.30139611 1.65364583,4.25636574 1.52289495,4.21006944 L1.43156829,4.17625144 C1.31962528,4.13538051 1.21111833,4.09288194 1.10586662,4.04929833 L1.03515625,4.02036315 C0.915979444,3.96918403 0.802228009,3.91673898 0.692997685,3.86266639 L0.615596065,3.8225188 C0.5206525,3.77369069 0.43041088,3.7237775 0.343243611,3.67440685 C0.328233519,3.66518375 0.311414907,3.65632231 0.296223981,3.64709926 C0.20073787,3.5881438 0.111038796,3.52774162 0.0282118056,3.46589264 C0.0197120833,3.45920139 0.00849972222,3.45341435 2.84217094e-14,3.4467231 L2.84217094e-14,7.40740741 C2.84217094e-14,8.33333333 3.24074074,9.62962963 8.51851852,9.62962963 C13.7962963,9.62962963 17.037037,8.33333333 17.037037,7.40740741 L17.0377604,3.44220194 Z" id="Path" fill-rule="nonzero"></path>
                        <path d="M17.0377604,2.22222222 C17.0377604,0.995008704 13.2239222,0 8.5192419,0 C3.81456162,0 0.00072337963,0.995008704 0.00072337963,2.22222222 C0.00072337963,3.44943574 3.81456162,4.44444444 8.5192419,4.44444444 C13.2239222,4.44444444 17.0377604,3.44943574 17.0377604,2.22222222 Z" id="Path" fill-rule="nonzero"></path>
                        <circle id="Oval" cx="15.5" cy="6.5" r="1"></circle>
                        <circle id="Oval" cx="15.5" cy="11.5" r="1"></circle>
                        <circle id="Oval" cx="15.5" cy="16.5" r="1"></circle>
                    </g>
                </g>
            </g>
        </g>
    </g>
</svg>