<?xml version="1.0" encoding="UTF-8"?>
<svg width="20px" height="20px" viewBox="0 0 20 20" version="1.1" xmlns="http://www.w3.org/2000/svg" xmlns:xlink="http://www.w3.org/1999/xlink">
    <!-- Generator: sketchtool 64 (101010) - https://sketch.com -->
    <title>0535E47B-60BE-4598-84FD-79E0F9F0361E</title>
    <desc>Created with sketchtool.</desc>
    <g id="Style-Guide" stroke="none" stroke-width="1" fill="none" fill-rule="evenodd">
        <g id="Aris-Brand-Design-Style-Guide" transform="translate(-911.000000, -8966.000000)">
            <g id="Icon/About/Default" transform="translate(909.000000, 8964.000000)">
                <g>
                    <polygon id="Path" points="0 0 24 0 24 24 0 24"></polygon>
                    <g id="167801" transform="translate(2.000000, 2.000000)" fill-rule="nonzero">
                        <path d="M10,0 C4.486,0 0,4.48581818 0,9.99945455 C0,15.5132121 4.486,19.9989697 10,19.9989697 C15.514,19.9989697 20,15.5132121 20,9.99945455 C20,4.48581818 15.514,0 10,0 Z" id="Path" fill="#FFFFFF"></path>
                        <path d="M10,2 C5.5888,2 2,5.58883943 2,9.99997576 C2,14.4112091 5.5888,18 10,18 C14.4112,18 18,14.4112091 18,9.99997576 C18,5.58883943 14.4112,2 10,2 Z" id="Path" stroke="#0067A5" stroke-width="0.719999981"></path>
                        <path d="M10,8.86493659 C10.5522847,8.86493659 11,9.31265184 11,9.86493659 L11,9.86493659 L11,14.8649366 C11,15.4172213 10.5522847,15.8649366 10,15.8649366 C9.44771525,15.8649366 9,15.4172213 9,14.8649366 L9,14.8649366 L9,9.86493659 C9,9.31265184 9.44771525,8.86493659 10,8.86493659 Z M10,5 C10.2633333,5 10.5206667,5.1066 10.7072667,5.29266667 C10.8932667,5.47866667 11,5.73666667 11,6 C11,6.26333333 10.8932667,6.52066667 10.7072667,6.70733333 C10.5206667,6.89333333 10.2633333,7 10,7 C9.73666667,7 9.47866667,6.89333333 9.29266667,6.70733333 C9.10666667,6.52066667 9,6.26333333 9,6 C9,5.73666667 9.10666667,5.47866667 9.29266667,5.29266667 C9.47926667,5.10666667 9.73666667,5 10,5 Z" id="Combined-Shape" fill="#0067A5"></path>
                    </g>
                </g>
            </g>
        </g>
    </g>
</svg>