<?xml version="1.0" encoding="UTF-8"?>
<svg width="17px" height="22px" viewBox="0 0 17 22" version="1.1" xmlns="http://www.w3.org/2000/svg" xmlns:xlink="http://www.w3.org/1999/xlink">
    <!-- Generator: sketchtool 64 (101010) - https://sketch.com -->
    <title>0D5468C4-47E4-40E3-93BC-6771957E740C</title>
    <desc>Created with sketchtool.</desc>
    <g id="Style-Guide" stroke="none" stroke-width="1" fill="none" fill-rule="evenodd">
        <g id="Aris-Brand-Design-Style-Guide" transform="translate(-689.000000, -8965.000000)">
            <g id="Icon/Deployment/Default" transform="translate(685.000000, 8964.000000)">
                <g>
                    <polygon id="Path" points="0 0 24 0 24 24 0 24"></polygon>
                    <g id="702808" transform="translate(4.000000, 1.000000)" fill="#FFFFFF" fill-rule="nonzero">
                        <g id="Group" transform="translate(0.000000, 11.086645)">
                            <path d="M5.31713748,5.79162017 L0.438961583,5.79162017 C0.438961583,5.79162017 0.532772658,2.75214134 3.81616028,0.875919843 C4.07230439,2.4182095 4.39778894,4.10302082 5.31713748,5.79162017 Z" id="Path"></path>
                            <path d="M16.1282855,5.79248547 L11.2501096,5.79248547 C11.2501096,5.79248547 11.3439207,2.75300664 14.6273083,0.876785144 C14.8834524,2.4190748 15.2089369,4.10388612 16.1282855,5.79248547 Z" id="Path" transform="translate(13.689198, 3.334635) scale(-1, 1) translate(-13.689198, -3.334635) "></path>
                        </g>
                        <path d="M5.90631922,17.0023453 L7.88224706,17.0023453 L7.88224706,12.1059078 L8.77965631,12.1059078 L8.77965631,17.0023453 L10.6531596,17.0023453 C10.6531596,17.0023453 15.2710768,6.70749186 8.59172826,0.0281433225 L8.59172826,4.03037316 L11.2455903,4.03037316 L11.5062899,4.74957349 L4.96799592,4.74957349 L5.23474097,4.03037316 L7.88224706,4.03037316 L7.88224706,0.0281433225 C1.18413631,6.72625407 5.90631922,17.0023453 5.90631922,17.0023453 Z" id="Path"></path>
                        <path d="M10.6154268,17.7351438 C10.6154268,20.4181405 8.33837283,21.4500623 8.33837283,21.4500623 C8.33837283,21.4500623 5.95337217,20.4181405 5.95337217,17.7351438 L10.6154268,17.7351438 Z" id="Path"></path>
                    </g>
                </g>
            </g>
        </g>
    </g>
</svg>